:FULLY-SPECIFIED
:FORCE-ALL-JOINTS-BE-3DOF
:DEGREES
611
root 5.64099 16.6843 -3.78513 0.04499 52.2554 -7.81032
lfemur -17.7707 24.9666 -22.319
ltibia 40.1278 0 0
lfoot -33.1903 25.1506 0
ltoes 19.4124 0 0
rfemur -52.9499 -17.7367 27.2741
rtibia 63.227 0 0
rfoot 9.07668 29.8922 0
rtoes -5.58878 0 0
lowerback 3.56162 -3.31263 -4.8148
upperback 0.0861003 -4.58961 1.13767
thorax -1.43689 -2.259 4.06637
lowerneck -8.45569 -9.30695 -0.497283
upperneck 14.9896 -13.2376 4.27573
head 6.27797 -6.1027 0.361727
lclavicle -1.86858e-14 -1.11319e-14 0
lhumerus -22.3214 -41.9237 93.0127
lradius 56.9449 0 0
lwrist 20.8129 0 0
lhand -11.1545 -0.000494 0
lfingers 7.12502 0 0
lthumb 14.8715 29.4444 0
rclavicle -1.86858e-14 -1.11319e-14 0
rhumerus 22.3415 3.6541 -72.154
rradius 117.907 0 0
rwrist -58.5683 0 0
rhand -27.8847 -23.6678 0
rfingers 7.12502 0 0
rthumb -1.27459 -773.643 0
612
root 5.64123 16.7036 -3.81012 0.59097 50.4015 -7.32836
lfemur -17.5956 25.1428 -22.6554
ltibia 39.6773 0 0
lfoot -33.665 25.7912 0
ltoes 21.416 0 0
rfemur -53.3841 -17.9174 27.0867
rtibia 65.2139 0 0
rfoot 9.42442 29.9838 0
rtoes -5.21375 0 0
lowerback 3.5193 -3.4241 -4.62123
upperback -0.0323198 -4.73133 1.14289
thorax -1.53449 -2.32582 3.97015
lowerneck -8.65325 -9.06481 -0.293086
upperneck 15.1328 -12.8881 3.88859
head 6.30457 -5.94525 0.230934
lclavicle -1.00883e-14 -1.11319e-14 0
lhumerus -22.3357 -42.6829 93.5407
lradius 57.3845 0 0
lwrist 20.4435 0 0
lhand -10.9009 -0.106915 0
lfingers 7.12502 0 0
lthumb 15.1159 29.3203 0
rclavicle -1.00883e-14 -1.11319e-14 0
rhumerus 22.0884 3.14966 -72.0148
rradius 116.557 0 0
rwrist -58.8088 0 0
rhand -28.1009 -23.9754 0
rfingers 7.12502 0 0
rthumb -1.48333 -773.949 0
613
root 5.64146 16.7229 -3.83511 1.13695 48.5475 -6.8464
lfemur -17.4206 25.319 -22.9919
ltibia 39.2267 0 0
lfoot -34.1396 26.4317 0
ltoes 23.4196 0 0
rfemur -53.8182 -18.0982 26.8992
rtibia 67.2008 0 0
rfoot 9.77215 30.0753 0
rtoes -4.83872 0 0
lowerback 3.47698 -3.53558 -4.42766
upperback -0.15074 -4.87304 1.14812
thorax -1.63209 -2.39265 3.87392
lowerneck -8.85081 -8.82267 -0.0888888
upperneck 15.276 -12.5386 3.50145
head 6.33117 -5.78781 0.100142
lclavicle -1.49089e-15 -1.11319e-14 0
lhumerus -22.35 -43.4421 94.0688
lradius 57.8242 0 0
lwrist 20.0741 0 0
lhand -10.6473 -0.213335 0
lfingers 7.12502 0 0
lthumb 15.3602 29.1961 0
rclavicle -1.49089e-15 -1.11319e-14 0
rhumerus 21.8352 2.64521 -71.8757
rradius 115.206 0 0
rwrist -59.0494 0 0
rhand -28.317 -24.2829 0
rfingers 7.12502 0 0
rthumb -1.69207 -774.256 0
614
root 5.65718 16.7437 -3.84011 1.57828 47.045 -6.55959
lfemur -17.2114 25.2806 -23.2271
ltibia 38.7271 0 0
lfoot -34.5248 26.5444 0
ltoes 24.6128 0 0
rfemur -53.5641 -18.1969 26.2356
rtibia 67.904 0 0
rfoot 9.80561 29.4227 0
rtoes -6.78912 0 0
lowerback 3.26208 -3.58421 -4.26765
upperback -0.262629 -4.92453 1.22608
thorax -1.62883 -2.41807 3.85547
lowerneck -8.99904 -8.64059 0.029502
upperneck 15.3002 -12.2788 3.28629
head 6.33968 -5.67081 0.0309328
lclavicle -2.53451e-15 -3.51183e-15 0
lhumerus -22.3349 -43.982 94.6503
lradius 58.456 0 0
lwrist 20.1388 0 0
lhand -10.8184 -0.447878 0
lfingers 7.12502 0 0
lthumb 15.1954 28.9737 0
rclavicle -2.53451e-15 -3.51183e-15 0
rhumerus 21.1231 2.41124 -71.4712
rradius 113.962 0 0
rwrist -58.9223 0 0
rhand -28.6061 -24.7499 0
rfingers 7.12502 0 0
rthumb -1.97131 -774.72 0
615
root 5.6729 16.7645 -3.84511 2.01962 45.5425 -6.27278
lfemur -17.0023 25.2422 -23.4622
ltibia 38.2275 0 0
lfoot -34.91 26.6571 0
ltoes 25.806 0 0
rfemur -53.3099 -18.2957 25.572
rtibia 68.6072 0 0
rfoot 9.83907 28.7701 0
rtoes -8.73951 0 0
lowerback 3.04717 -3.63285 -4.10764
upperback -0.374517 -4.97603 1.30403
thorax -1.62558 -2.44349 3.83702
lowerneck -9.14727 -8.4585 0.147893
upperneck 15.3243 -12.019 3.07114
head 6.3482 -5.55381 -0.0382763
lclavicle -3.57813e-15 4.10823e-15 0
lhumerus -22.3197 -44.5219 95.2317
lradius 59.0877 0 0
lwrist 20.2035 0 0
lhand -10.9895 -0.68242 0
lfingers 7.12502 0 0
lthumb 15.0306 28.7514 0
rclavicle -3.57813e-15 4.10823e-15 0
rhumerus 20.4109 2.17726 -71.0667
rradius 112.717 0 0
rwrist -58.7952 0 0
rhand -28.8953 -25.2169 0
rfingers 7.12502 0 0
rthumb -2.25054 -775.183 0
616
root 5.68861 16.7854 -3.85011 2.46095 44.0401 -5.98597
lfemur -16.7931 25.2038 -23.6974
ltibia 37.7279 0 0
lfoot -35.2952 26.7698 0
ltoes 26.9992 0 0
rfemur -53.0558 -18.3944 24.9084
rtibia 69.3105 0 0
rfoot 9.87253 28.1176 0
rtoes -10.6899 0 0
lowerback 2.83227 -3.68148 -3.94763
upperback -0.486405 -5.02752 1.38199
thorax -1.62232 -2.46891 3.81857
lowerneck -9.2955 -8.27642 0.266284
upperneck 15.3484 -11.7592 2.85598
head 6.35671 -5.4368 -0.107485
lclavicle -4.62174e-15 1.17283e-14 0
lhumerus -22.3046 -45.0618 95.8132
lradius 59.7194 0 0
lwrist 20.2681 0 0
lhand -11.1606 -0.916963 0
lfingers 7.12502 0 0
lthumb 14.8658 28.529 0
rclavicle -4.62174e-15 1.17283e-14 0
rhumerus 19.6988 1.94329 -70.6623
rradius 111.473 0 0
rwrist -58.6681 0 0
rhand -29.1844 -25.6838 0
rfingers 7.12502 0 0
rthumb -2.52978 -775.647 0
617
root 5.70433 16.8062 -3.8551 2.90229 42.5376 -5.69917
lfemur -16.5839 25.1654 -23.9326
ltibia 37.2282 0 0
lfoot -35.6805 26.8825 0
ltoes 28.1925 0 0
rfemur -52.8016 -18.4931 24.2448
rtibia 70.0137 0 0
rfoot 9.90599 27.465 0
rtoes -12.6403 0 0
lowerback 2.61736 -3.73012 -3.78762
upperback -0.598294 -5.07901 1.45994
thorax -1.61906 -2.49432 3.80012
lowerneck -9.44374 -8.09434 0.384674
upperneck 15.3726 -11.4994 2.64082
head 6.36522 -5.3198 -0.176695
lclavicle -5.66536e-15 1.93484e-14 0
lhumerus -22.2895 -45.6017 96.3947
lradius 60.3512 0 0
lwrist 20.3328 0 0
lhand -11.3316 -1.15151 0
lfingers 7.12502 0 0
lthumb 14.7009 28.3066 0
rclavicle -5.66536e-15 1.93484e-14 0
rhumerus 18.9867 1.70932 -70.2578
rradius 110.229 0 0
rwrist -58.541 0 0
rhand -29.4735 -26.1508 0
rfingers 7.12502 0 0
rthumb -2.80902 -776.111 0
618
root 5.72005 16.827 -3.8601 3.34362 41.0351 -5.41236
lfemur -16.3748 25.127 -24.1677
ltibia 36.7286 0 0
lfoot -36.0657 26.9952 0
ltoes 29.3857 0 0
rfemur -52.5474 -18.5919 23.5812
rtibia 70.7169 0 0
rfoot 9.93945 26.8124 0
rtoes -14.5907 0 0
lowerback 2.40245 -3.77875 -3.62761
upperback -0.710182 -5.13051 1.5379
thorax -1.61581 -2.51974 3.78167
lowerneck -9.59197 -7.91225 0.503065
upperneck 15.3967 -11.2396 2.42567
head 6.37374 -5.2028 -0.245904
lclavicle -6.70898e-15 2.69684e-14 0
lhumerus -22.2743 -46.1416 96.9761
lradius 60.983 0 0
lwrist 20.3975 0 0
lhand -11.5027 -1.38605 0
lfingers 7.12502 0 0
lthumb 14.5361 28.0843 0
rclavicle -6.70898e-15 2.69684e-14 0
rhumerus 18.2745 1.47534 -69.8533
rradius 108.984 0 0
rwrist -58.4139 0 0
rhand -29.7627 -26.6178 0
rfingers 7.12502 0 0
rthumb -3.08825 -776.574 0
